<?xml version="1.0" standalone="yes"?>
<svg xmlns="http://www.w3.org/2000/svg" width="96" height="96">
<path style="fill:#040103; stroke:none;" d="M0 0L0 43L1 43L42 0L0 0z"/>
<path style="fill:#5f0733; stroke:none;" d="M42 1.02778C37.3614 3.34709 33.6165 8.38354 30 12C20.9614 21.0386 -1.39382 35.8813 0.109568 50C0.74819 55.9975 5.99971 59.9982 10 64C18.9004 72.9039 38.2967 101.406 53 95.0617C57.7149 93.0275 61.4447 88.5496 65 85C74.186 75.8288 98.4103 59.6407 95.7716 45C94.7236 39.1853 88.9514 34.9516 85 31C76.2169 22.2164 56.7753 -6.35989 42 1.02778z"/>
<path style="fill:#040103; stroke:none;" d="M53 0L53 1C67.4717 12.0263 84.5229 28.1266 95 43L96 43L96 0L53 0z"/>
<path style="fill:#c90874; stroke:none;" d="M5 58L6 59L8 58L9 59L8 61C12.1716 62.1659 17.3695 66.5505 18 71C21.8186 71.7071 24.2471 74.1844 25 78L26 79L48.0039 94.4421L60.3735 85.8735L85.1265 61.1265L94.2431 49.0008L85 32L78 29L79 26C75.0325 24.416 71.8678 22.3977 71 18C66.7237 17.4359 61.6057 12.279 61 8L59 6C54.217 5.42377 51.3564 0.325363 46 1.69599C41.1291 2.94238 37.4001 7.60564 34 11C25.1101 19.8751 4.8789 33.5795 1.69599 46C0.493863 50.691 4.52962 53.6844 5 58z"/>
<path style="fill:#fe0393; stroke:none;" d="M45.0008 4.01775C32.7521 9.63477 21.1097 26.3026 11.8657 35.9498C8.64779 39.3082 2.50073 43.661 3.37654 49C4.10649 53.4498 9.00096 56.9645 11.9606 59.9853C20.332 68.5296 28.7027 77.0956 37.2855 85.4282C40.8458 88.8848 45.4421 94.6422 51 91.9676C63.1035 86.1431 74.5267 69.4892 84 60C87.2577 56.7369 93.2882 52.2788 92.4583 47C91.6846 42.0783 86.2954 38.2261 82.9892 34.9614C74.6102 26.6875 66.4002 18.2527 58 9.99692C54.5243 6.58098 50.4031 1.54034 45.0008 4.01775z"/>
<path style="fill:#5f0733; stroke:none;" d="M77 26L78 27L77 26z"/>
<path style="fill:#c90874; stroke:none;" d="M72 44L72 45L77 44L72 44z"/>
<path style="fill:#fff1fd; stroke:none;" d="M74.9367 44.8326C67.87 44.4687 52.336 49.0734 49.7647 56.0154C48.6887 58.9203 42.068 77.7932 47.1628 77.7932C50.203 77.7932 53.0667 73.9184 55 71.9992C61.345 65.7007 67.8214 59.4808 73.9799 53C75.786 51.0994 80.7827 45.1336 74.9367 44.8326z"/>
<path style="fill:#c90874; stroke:none;" d="M65 46L65 47L70 46L65 46M61.6667 47.3333L62.3333 47.6667L61.6667 47.3333M57 48L57 49L61 49L57 48M52 50L52 51L56 50L52 50M77 49L78 50L77 49M74 53L77 51L74 53M50.3333 52.6667L50.6667 53.3333L50.3333 52.6667z"/>
<path style="fill:#040103; stroke:none;" d="M0 53L0 96L43 96L43 95L0 53z"/>
<path style="fill:#c90874; stroke:none;" d="M73 53L74 54L73 53z"/>
<path style="fill:#040103; stroke:none;" d="M95 53L53 96L96 96C96 83.7811 99.7105 64.2256 95 53z"/>
<path style="fill:#c90874; stroke:none;" d="M49.3333 54.6667L49.6667 55.3333L49.3333 54.6667M72 54L73 55L72 54M71 55L72 56L71 55z"/>
<path style="fill:#5f0733; stroke:none;" d="M6 57L7 58L6 57z"/>
<path style="fill:#c90874; stroke:none;" d="M48 57L48 61L49 61L48 57M69 57L68 59L70 59L69 57M67 59L68 60L67 59M66 60L67 61L66 60M47.3333 61.6667L47.6667 62.3333L47.3333 61.6667M65 61L66 62L65 61M63 63L64 64L63 63M46 65L46 68L47 68L46 65M61 65L62 66L61 65M60 66L61 67L60 66M59 67L60 68L59 67M45.3333 68.6667L45.6667 69.3333L45.3333 68.6667M58 68L57 70L59 70L58 68M55 71L56 72L55 71M44 72L44 75L45 75L44 72M54 72L55 73L54 72M53 73L54 74L53 73M50 77L53 75L50 77M43 76L44 77L43 76z"/>
<path style="fill:#5f0733; stroke:none;" d="M26 77L27 78L26 77z"/>
<path style="fill:#c90874; stroke:none;" d="M49 77L50 78L49 77M44 78L45 79L44 78M48 78L49 79L48 78z"/>
</svg>
